# Blender v2.79 (sub 0) OBJ File: ''
# www.blender.org
o Cube
v 1.000000 -1.000000 -0.351137
v 1.000000 -1.000000 0.351137
v -0.351137 -1.000000 1.000000
v -0.351137 -1.000000 -1.000000
v 1.000000 0.351137 -1.000000
v 1.000000 0.351137 1.000000
v -0.351137 1.000000 1.000000
v -0.351137 1.000000 -1.000000
vn 0.0000 -1.0000 0.0000
vn 0.4329 0.9014 0.0000
vn 1.0000 0.0000 0.0000
vn 0.3973 -0.3973 0.8273
vn -1.0000 -0.0000 -0.0000
vn 0.0000 0.0000 -1.0000
vn -0.0000 -0.0000 1.0000
vn 0.3973 -0.3973 -0.8273
s off
f 2//1 4//1 1//1
f 8//2 6//2 5//2
f 5//3 2//3 1//3
f 6//4 3//4 2//4
f 3//5 8//5 4//5
f 5//6 4//6 8//6
f 2//1 3//1 4//1
f 8//2 7//2 6//2
f 5//3 6//3 2//3
f 6//7 7//7 3//7
f 3//5 7//5 8//5
f 5//8 1//8 4//8
