# Blender v2.79 (sub 0) OBJ File: ''
# www.blender.org
mtllib mycube.mtl
o Cube
v 1.000000 -1.000000 -1.000000
v 1.000000 -1.000000 1.000000
v -1.000000 -1.000000 1.000000
v -1.000000 -1.000000 -1.000000
v 1.000000 1.000000 -0.999999
v 0.999999 1.000000 1.000001
v -1.000000 1.000000 1.000000
v -1.000000 1.000000 -1.000000
v 1.000000 -1.000000 0.000000
v 0.000000 -1.000000 -1.000000
v 1.000000 0.000000 -1.000000
v 0.000000 -1.000000 1.000000
v 1.000000 0.000000 1.000000
v -1.000000 -1.000000 -0.000000
v -1.000000 0.000000 1.000000
v -1.000000 0.000000 -1.000000
v 1.000000 1.000000 0.000001
v 0.000000 1.000000 -1.000000
v -0.000001 1.000000 1.000000
v -1.000000 1.000000 -0.000000
v 0.000000 -0.000000 -1.052026
v -1.052026 0.000000 -0.000000
v -0.000000 0.000000 1.052026
v 1.052026 -0.000000 0.000000
v -0.000000 1.000000 0.000000
v 0.000000 -1.000000 -0.000000
v 1.000000 -1.000000 0.500000
v -0.500000 -1.000000 -1.000000
v 1.000000 0.500000 -1.000000
v -0.500000 -1.000000 1.000000
v 1.000000 0.500000 1.000000
v -1.000000 -1.000000 -0.500000
v -1.000000 0.500000 1.000000
v -1.000000 0.500000 -1.000000
v 1.000000 1.000000 0.500001
v -0.500000 1.000000 -1.000000
v -0.500000 1.000000 1.000000
v -1.000000 1.000000 -0.500000
v 1.000000 -1.000000 -0.500000
v 0.500000 -1.000000 -1.000000
v 1.000000 -0.500000 -1.000000
v 0.500000 -1.000000 1.000000
v 1.000000 -0.500000 1.000000
v -1.000000 -1.000000 0.500000
v -1.000000 -0.500000 1.000000
v -1.000000 -0.500000 -1.000000
v 1.000000 1.000000 -0.499999
v 0.500000 1.000000 -1.000000
v 0.499999 1.000000 1.000000
v -1.000000 1.000000 0.500000
v -0.800836 -0.000000 -1.113708
v 0.800837 -0.000000 -1.113707
v 0.000000 0.800836 -1.113707
v 0.000000 -0.800836 -1.113708
v -1.113707 0.000000 -0.800837
v -1.113708 0.000000 0.800836
v -1.113707 -0.800836 -0.000000
v -1.113708 0.800836 -0.000000
v -0.800837 -0.000000 1.113707
v 0.800836 0.000000 1.113708
v -0.000000 -0.800836 1.113708
v -0.000000 0.800836 1.113708
v 1.113707 -0.000000 0.800836
v 1.113708 0.000000 -0.800836
v 1.113708 -0.800836 0.000000
v 1.113708 0.800836 0.000000
v -0.000000 1.000000 0.500000
v 0.000000 1.000000 -0.500000
v 0.500000 1.000000 0.000000
v -0.500000 1.000000 0.000000
v -0.500000 -1.000000 -0.000000
v 0.500000 -1.000000 -0.000000
v 0.000000 -1.000000 -0.500000
v 0.000000 -1.000000 0.500000
v 0.500000 -1.000000 0.500000
v 0.500000 -1.000000 -0.500000
v -0.500000 -1.000000 -0.500000
v -0.500000 1.000000 -0.500000
v 0.500000 1.000000 -0.500000
v 0.500000 1.000000 0.500000
v 1.154882 0.803472 -0.803471
v 1.154881 -0.803472 -0.803472
v 1.154881 -0.803472 0.803472
v 0.803471 0.803472 1.154882
v 0.803472 -0.803472 1.154881
v -0.803472 -0.803472 1.154881
v -1.154881 0.803472 0.803472
v -1.154881 -0.803472 0.803472
v -1.154881 -0.803472 -0.803472
v 0.803472 -0.803472 -1.154881
v 0.803472 0.803472 -1.154881
v -0.803472 0.803472 -1.154881
v -0.803472 -0.803472 -1.154881
v -1.154881 0.803472 -0.803472
v -0.803472 0.803472 1.154881
v 1.154881 0.803472 0.803472
v -0.500000 1.000000 0.500000
v -0.500000 -1.000000 0.500000
vt 0.250000 0.000000
vt 0.000000 0.250000
vt 0.250000 0.250000
vt -0.000000 0.250000
vt 0.250000 0.000000
vt 0.250000 0.250000
vt 0.098264 0.901736
vt -0.000000 1.000000
vt -0.000000 0.750000
vt 0.098264 0.901736
vt -0.000000 1.000000
vt -0.000000 0.750000
vt 0.901736 0.901736
vt 1.000000 1.000000
vt 1.000000 0.750000
vt 0.098264 0.098264
vt 0.000000 0.000000
vt 0.000000 0.250000
vt 0.099582 0.500000
vt 0.000000 0.750000
vt 0.098264 0.901736
vt 0.900418 0.500000
vt 0.500000 0.900418
vt 0.901736 0.901736
vt 0.750000 0.000000
vt 0.500000 0.099582
vt 0.901736 0.098264
vt 0.900418 0.500000
vt 1.000000 0.250000
vt 0.901736 0.098264
vt 0.099582 0.500000
vt 0.500000 0.099582
vt 0.098264 0.098264
vt 0.250000 1.000000
vt 0.500000 0.900418
vt 0.098264 0.901736
vt 0.099582 0.500000
vt -0.000000 0.250000
vt 0.098264 0.098264
vt 0.900418 0.500000
vt 0.500000 0.099582
vt 0.901736 0.098264
vt 0.750000 1.000000
vt 0.500000 0.900418
vt 0.901736 0.901736
vt 0.099582 0.500000
vt -0.000000 0.250000
vt 0.098264 0.098264
vt 0.900418 0.500000
vt 0.500000 0.099582
vt 0.901736 0.098264
vt 0.750000 1.000000
vt 0.500000 0.900418
vt 0.901736 0.901736
vt 0.750000 0.250000
vt 0.500000 -0.000000
vt 0.750000 -0.000000
vt 0.500000 0.750000
vt 0.750000 0.500000
vt 0.750000 0.750000
vt 0.250000 0.750000
vt -0.000000 0.500000
vt 0.250000 0.500000
vt 0.250000 0.500000
vt 0.000000 0.750000
vt 0.250000 0.750000
vt 0.750000 0.500000
vt 0.500000 0.750000
vt 0.750000 0.750000
vt 0.750000 0.250000
vt 0.500000 0.000000
vt 0.500000 0.250000
vt 0.500000 0.500000
vt 0.000000 0.500000
vt -0.250000 0.250000
vt -0.250000 0.500000
vt 0.000000 0.250000
vt -0.250000 0.000000
vt 0.500000 -0.250000
vt 0.500000 0.000000
vt 0.000000 -0.250000
vt -0.250000 0.000000
vt 0.000000 0.000000
vt 0.000000 0.750000
vt -0.250000 0.750000
vt 0.250000 -0.250000
vt 0.250000 0.000000
vt 0.500000 0.500000
vt 0.250000 1.000000
vt 0.500000 1.000000
vt 0.000000 0.750000
vt -0.250000 0.750000
vt -0.000000 0.500000
vt 0.000000 0.750000
vt -0.250000 1.000000
vt 0.000000 1.000000
vt 0.750000 1.000000
vt 1.000000 -0.000000
vt 1.000000 0.250000
vt 1.000000 0.500000
vt 0.500000 0.250000
vt 0.500000 0.500000
vt 1.000000 0.750000
vt 1.000000 0.500000
vt 1.000000 1.000000
vt 0.750000 0.000000
vt 0.500000 0.000000
vt -0.098264 0.098264
vt -0.250000 0.000000
vt 1.000000 0.250000
vt 0.000000 0.000000
vt 0.250000 0.000000
vt 0.500000 0.500000
vt 1.000000 0.750000
vt 1.000000 0.500000
vt 1.000000 1.000000
vt 0.750000 0.000000
vt -0.098264 0.098264
vt 1.000000 0.250000
vt -0.000000 0.000000
vt 0.500000 0.500000
vt 0.000000 0.500000
vt 0.250000 0.000000
vt 0.500000 0.000000
vt 1.000000 0.000000
vt 0.750000 0.000000
vt 0.500000 0.500000
vt 0.000000 0.250000
vt -0.099582 0.500000
vt 0.000000 0.500000
vt -0.098264 0.098264
vt 0.750000 0.000000
vt 0.500000 -0.099582
vt 0.500000 0.000000
vt 0.000000 0.000000
vt -0.098264 -0.098264
vt -0.250000 0.000000
vt 0.000000 0.750000
vt -0.098264 0.901736
vt 0.098264 -0.098264
vt 0.000000 0.000000
vt 0.250000 0.000000
vt 0.000000 0.500000
vt 1.000000 0.500000
vt 0.750000 1.000000
vt 0.250000 1.000000
vt -0.000000 0.500000
vt 0.250000 1.000000
vt 0.000000 0.500000
vt -0.000000 0.000000
vt 0.500000 1.000000
vt 0.500000 1.000000
vt 0.500000 1.000000
vt 0.750000 -0.250000
vt -0.250000 -0.250000
vt 0.000000 -0.250000
vt 0.000000 1.000000
vt -0.250000 0.500000
vt 0.901736 -0.098264
vt 0.000000 -0.250000
vt 0.000000 -0.250000
vn 0.0000 -1.0000 0.0000
vn 0.0000 1.0000 0.0000
vn 0.7854 0.0000 0.6190
vn -0.6190 0.0000 0.7854
vn -0.7854 0.0000 -0.6190
vn -0.6190 -0.0000 -0.7854
vn -0.5759 -0.0437 -0.8164
vn -0.0509 -0.0509 -0.9974
vn -0.0437 -0.5759 -0.8164
vn -0.8164 0.0437 -0.5759
vn -0.9974 0.0509 -0.0509
vn -0.8164 0.5759 -0.0437
vn -0.5759 0.0437 0.8164
vn -0.0509 0.0509 0.9974
vn -0.0437 0.5759 0.8164
vn 0.8164 0.0437 0.5759
vn 0.9974 0.0509 0.0509
vn 0.8164 0.5759 0.0437
vn 0.9941 -0.0766 0.0766
vn 0.8684 -0.0000 -0.4958
vn 0.7854 0.0000 -0.6190
vn 0.8684 -0.4958 0.0000
vn 0.7854 -0.6190 0.0000
vn 0.8164 0.0437 -0.5759
vn 0.9974 0.0509 -0.0509
vn -0.0766 -0.0766 0.9941
vn 0.4958 -0.0000 0.8684
vn 0.6190 0.0000 0.7854
vn 0.0000 -0.4958 0.8684
vn 0.0000 -0.6190 0.7854
vn 0.5759 0.0437 0.8164
vn 0.0509 0.0509 0.9974
vn -0.9941 -0.0766 -0.0766
vn -0.8684 0.0000 0.4958
vn -0.7854 -0.0000 0.6190
vn -0.8684 -0.4958 -0.0000
vn -0.7854 -0.6190 0.0000
vn -0.8164 0.0437 0.5759
vn -0.9974 0.0509 0.0509
vn -0.0766 0.0766 -0.9941
vn 0.4958 0.0000 -0.8684
vn 0.6190 0.0000 -0.7854
vn 0.0000 0.4958 -0.8684
vn 0.0000 0.6190 -0.7854
vn 0.5759 -0.0437 -0.8164
vn 0.0509 -0.0509 -0.9974
vn -0.4958 -0.0000 -0.8684
vn 0.0766 0.0766 -0.9941
vn 0.0437 -0.5759 -0.8164
vn -0.8684 0.0000 -0.4958
vn -0.9941 -0.0766 0.0766
vn -0.8164 0.5759 0.0437
vn -0.4958 0.0000 0.8684
vn 0.0766 -0.0766 0.9941
vn 0.0437 0.5759 0.8164
vn 0.8684 0.0000 0.4958
vn 0.9941 -0.0766 -0.0766
vn 0.8164 0.5759 -0.0437
vn 0.7854 0.6190 0.0000
vn -0.0000 0.6190 0.7854
vn -0.7854 0.6190 0.0000
vn 0.0000 -0.6190 -0.7854
vn -0.0766 -0.0766 -0.9941
vn 0.0000 -0.4958 -0.8684
vn -0.9941 0.0766 -0.0766
vn -0.8684 0.4958 -0.0000
vn -0.0766 0.0766 0.9941
vn -0.0000 0.4958 0.8684
vn 0.9941 0.0766 0.0766
vn 0.8684 0.4958 0.0000
vn 0.9974 -0.0509 0.0509
vn 0.8164 -0.0437 -0.5759
vn 0.8164 -0.5759 0.0437
vn 0.8164 -0.5759 -0.0437
vn 0.9941 0.0766 -0.0766
vn -0.0509 -0.0509 0.9974
vn 0.5759 -0.0437 0.8164
vn -0.0437 -0.5759 0.8164
vn 0.0437 -0.5759 0.8164
vn 0.0766 0.0766 0.9941
vn -0.9974 -0.0509 -0.0509
vn -0.8164 -0.0437 0.5759
vn -0.8164 -0.5759 -0.0437
vn -0.8164 -0.5759 0.0437
vn -0.9941 0.0766 0.0766
vn -0.0509 0.0509 -0.9974
vn 0.5759 0.0437 -0.8164
vn -0.0437 0.5759 -0.8164
vn 0.0437 0.5759 -0.8164
vn 0.0766 -0.0766 -0.9941
vn -0.5759 0.0437 -0.8164
vn 0.0509 0.0509 -0.9974
vn -0.8164 -0.0437 -0.5759
vn -0.9974 -0.0509 0.0509
vn -0.5759 -0.0437 0.8164
vn 0.0509 -0.0509 0.9974
vn 0.8164 -0.0437 0.5759
vn 0.9974 -0.0509 -0.0509
usemtl Material
s off
f 30/1/1 44/2/1 98/3/1
f 50/4/2 37/5/2 97/6/2
f 96/7/3 6/8/3 31/9/3
f 95/10/4 7/11/4 33/12/4
f 94/13/5 8/14/5 34/15/5
f 93/16/6 4/17/6 46/18/6
f 51/19/7 34/20/7 92/21/7
f 52/22/8 53/23/8 91/24/8
f 40/25/9 54/26/9 90/27/9
f 55/28/10 46/29/10 89/30/10
f 56/31/11 57/32/11 88/33/11
f 50/34/12 58/35/12 87/36/12
f 59/37/13 45/38/13 86/39/13
f 60/40/14 61/41/14 85/42/14
f 49/43/15 62/44/15 84/45/15
f 63/46/16 43/47/16 83/48/16
f 64/49/17 65/50/17 82/51/17
f 47/52/18 66/53/18 81/54/18
f 80/55/2 19/56/2 49/57/2
f 68/58/2 69/59/2 79/60/2
f 78/61/2 20/62/2 70/63/2
f 71/64/1 32/65/1 77/66/1
f 72/67/1 73/68/1 76/69/1
f 75/70/1 12/71/1 74/72/1
f 72/67/1 74/72/1 26/73/1
f 9/74/1 75/75/1 72/76/1
f 27/77/1 42/78/1 75/75/1
f 40/25/1 73/79/1 10/80/1
f 39/81/1 40/82/1 1/83/1
f 39/84/1 72/76/1 76/85/1
f 77/86/1 4/17/1 28/87/1
f 10/80/1 77/86/1 28/87/1
f 73/68/1 71/64/1 77/66/1
f 78/61/2 25/88/2 68/58/2
f 36/89/2 68/58/2 18/90/2
f 36/89/2 38/91/2 78/61/2
f 79/92/2 17/93/2 47/94/2
f 48/95/2 47/94/2 5/96/2
f 18/90/2 79/60/2 48/97/2
f 80/55/2 6/98/2 35/99/2
f 69/59/2 35/99/2 17/100/2
f 69/59/2 67/101/2 80/55/2
f 64/49/19 66/53/19 24/102/19
f 29/103/20 64/49/20 11/104/20
f 5/105/21 81/54/21 29/103/21
f 39/106/22 65/50/22 9/107/22
f 1/83/23 82/108/23 39/109/23
f 41/110/24 64/49/24 82/51/24
f 83/48/23 2/111/23 27/112/23
f 65/50/22 27/112/22 9/107/22
f 65/50/25 63/46/25 83/48/25
f 60/40/26 62/44/26 23/113/26
f 31/114/27 60/40/27 13/115/27
f 6/116/28 84/45/28 31/114/28
f 42/117/29 61/41/29 12/71/29
f 2/111/30 85/118/30 42/78/30
f 43/119/31 60/40/31 85/42/31
f 86/39/30 3/120/30 30/1/30
f 61/41/29 30/1/29 12/71/29
f 61/41/32 59/37/32 86/39/32
f 56/31/33 58/35/33 22/121/33
f 33/12/34 56/31/34 15/122/34
f 7/11/35 87/36/35 33/12/35
f 44/123/36 57/32/36 14/124/36
f 3/120/37 88/33/37 44/123/37
f 45/38/38 56/31/38 88/33/38
f 89/30/37 4/125/37 32/126/37
f 57/32/36 32/126/36 14/124/36
f 57/32/39 55/28/39 89/30/39
f 52/22/40 54/26/40 21/127/40
f 41/128/41 52/129/41 11/130/41
f 1/83/42 90/131/42 41/128/42
f 48/132/43 53/133/43 18/134/43
f 5/135/44 91/136/44 48/137/44
f 29/138/45 52/129/45 91/139/45
f 92/140/44 8/141/44 36/142/44
f 53/133/43 36/142/43 18/134/43
f 53/23/46 51/19/46 92/21/46
f 51/19/47 46/18/47 16/143/47
f 54/26/48 51/19/48 21/127/48
f 54/26/49 28/87/49 93/16/49
f 55/28/50 34/15/50 16/144/50
f 58/35/51 55/28/51 22/121/51
f 58/35/52 38/145/52 94/13/52
f 59/37/53 33/12/53 15/122/53
f 62/44/54 59/37/54 23/113/54
f 62/44/55 37/146/55 95/10/55
f 63/46/56 31/9/56 13/147/56
f 66/53/57 63/46/57 24/102/57
f 66/53/58 35/148/58 96/7/58
f 97/6/2 19/56/2 67/101/2
f 70/63/2 67/101/2 25/88/2
f 20/62/2 97/6/2 70/63/2
f 98/3/1 14/149/1 71/64/1
f 74/72/1 71/64/1 26/73/1
f 74/72/1 30/1/1 98/3/1
f 30/1/1 3/120/1 44/2/1
f 50/4/2 7/150/2 37/5/2
f 96/7/59 35/148/59 6/8/59
f 95/10/60 37/146/60 7/11/60
f 94/13/61 38/145/61 8/14/61
f 93/16/62 28/87/62 4/17/62
f 51/19/47 16/143/47 34/20/47
f 52/22/63 21/127/63 53/23/63
f 40/25/64 10/80/64 54/26/64
f 55/28/50 16/144/50 46/29/50
f 56/31/65 22/121/65 57/32/65
f 50/34/66 20/151/66 58/35/66
f 59/37/53 15/122/53 45/38/53
f 60/40/67 23/113/67 61/41/67
f 49/43/68 19/152/68 62/44/68
f 63/46/56 13/147/56 43/47/56
f 64/49/69 24/102/69 65/50/69
f 47/52/70 17/153/70 66/53/70
f 80/55/2 67/101/2 19/56/2
f 68/58/2 25/88/2 69/59/2
f 78/61/2 38/91/2 20/62/2
f 71/64/1 14/149/1 32/65/1
f 72/67/1 26/73/1 73/68/1
f 75/70/1 42/117/1 12/71/1
f 72/67/1 75/70/1 74/72/1
f 9/74/1 27/77/1 75/75/1
f 27/77/1 2/111/1 42/78/1
f 40/25/1 76/154/1 73/79/1
f 39/81/1 76/155/1 40/82/1
f 39/84/1 9/74/1 72/76/1
f 77/86/1 32/156/1 4/17/1
f 10/80/1 73/79/1 77/86/1
f 73/68/1 26/73/1 71/64/1
f 78/61/2 70/63/2 25/88/2
f 36/89/2 78/61/2 68/58/2
f 36/89/2 8/157/2 38/91/2
f 79/92/2 69/158/2 17/93/2
f 48/95/2 79/92/2 47/94/2
f 18/90/2 68/58/2 79/60/2
f 80/55/2 49/57/2 6/98/2
f 69/59/2 80/55/2 35/99/2
f 69/59/2 25/88/2 67/101/2
f 64/49/71 81/54/71 66/53/71
f 29/103/72 81/54/72 64/49/72
f 5/105/59 47/52/59 81/54/59
f 39/106/73 82/51/73 65/50/73
f 1/83/21 41/128/21 82/108/21
f 41/110/20 11/104/20 64/49/20
f 83/48/3 43/47/3 2/111/3
f 65/50/74 83/48/74 27/112/74
f 65/50/75 24/102/75 63/46/75
f 60/40/76 84/45/76 62/44/76
f 31/114/77 84/45/77 60/40/77
f 6/116/60 49/43/60 84/45/60
f 42/117/78 85/42/78 61/41/78
f 2/111/28 43/47/28 85/118/28
f 43/119/27 13/115/27 60/40/27
f 86/39/4 45/38/4 3/120/4
f 61/41/79 86/39/79 30/1/79
f 61/41/80 23/113/80 59/37/80
f 56/31/81 87/36/81 58/35/81
f 33/12/82 87/36/82 56/31/82
f 7/11/61 50/34/61 87/36/61
f 44/123/83 88/33/83 57/32/83
f 3/120/35 45/38/35 88/33/35
f 45/38/34 15/122/34 56/31/34
f 89/30/5 46/29/5 4/125/5
f 57/32/84 89/30/84 32/126/84
f 57/32/85 22/121/85 55/28/85
f 52/22/86 90/27/86 54/26/86
f 41/128/87 90/131/87 52/129/87
f 1/83/62 40/82/62 90/131/62
f 48/132/88 91/159/88 53/133/88
f 5/135/42 29/160/42 91/136/42
f 29/138/41 11/130/41 52/129/41
f 92/140/6 34/161/6 8/141/6
f 53/133/89 92/140/89 36/142/89
f 53/23/90 21/127/90 51/19/90
f 51/19/91 93/16/91 46/18/91
f 54/26/92 93/16/92 51/19/92
f 54/26/64 10/80/64 28/87/64
f 55/28/93 94/13/93 34/15/93
f 58/35/94 94/13/94 55/28/94
f 58/35/66 20/151/66 38/145/66
f 59/37/95 95/10/95 33/12/95
f 62/44/96 95/10/96 59/37/96
f 62/44/68 19/152/68 37/146/68
f 63/46/97 96/7/97 31/9/97
f 66/53/98 96/7/98 63/46/98
f 66/53/70 17/153/70 35/148/70
f 97/6/2 37/5/2 19/56/2
f 70/63/2 97/6/2 67/101/2
f 20/62/2 50/4/2 97/6/2
f 98/3/1 44/2/1 14/149/1
f 74/72/1 98/3/1 71/64/1
f 74/72/1 12/71/1 30/1/1
